<svg xmlns="http://www.w3.org/2000/svg" viewBox="0 0 200 60" fill="none">
  <path d="M16.891 12.895c-.084.636-.636 1.127-1.309 1.127-.636 0-1.163-.49-1.309-1.127l-.636-4.891c-.084-.636.445-1.163 1.081-1.163.636 0 1.163.527 1.309 1.163l.636 4.891zm-1.309-6.509c-3.018 0-5.454 2.4-5.454 5.382 0 2.982 2.436 5.382 5.454 5.382 3.018 0 5.454-2.4 5.454-5.382 0-2.982-2.436-5.382-5.454-5.382zm0 9.236c-2.109 0-3.818-1.636-3.818-3.654 0-2.018 1.709-3.654 3.818-3.654 2.109 0 3.818 1.636 3.818 3.654 0 2.018-1.709 3.654-3.818 3.654zM7.636 6.55c-.636 0-1.163.527-1.163 1.163v4.891c0 .636.527 1.163 1.163 1.163.636 0 1.163-.527 1.163-1.163V7.713c0-.636-.527-1.163-1.163-1.163zm-2.327 4.891c-.636 0-1.163.527-1.163 1.163 0 .636.527 1.163 1.163 1.163.636 0 1.163-.527 1.163-1.163 0-.636-.527-1.163-1.163-1.163z" fill="#FF9900"/>
  <text x="30" y="38" font-family="Arial, sans-serif" font-size="32" font-weight="bold" fill="#FF9900">Amazon</text>
</svg>
