<svg xmlns="http://www.w3.org/2000/svg" viewBox="0 0 200 60" fill="none">
  <path d="M15.852 8.981h-4.588V0h4.588c2.476 0 4.49 2.014 4.49 4.49s-2.014 4.491-4.49 4.491zM12.264 7.51h3.588c1.665 0 3.019-1.355 3.019-3.019s-1.355-3.019-3.019-3.019h-3.588V7.51zm0 1.471H8.26c-2.476 0-4.49-2.014-4.49-4.49S5.784 0 8.26 0h3.588v8.981zm-4.588-7.51c-1.665 0-3.019 1.355-3.019 3.019s1.355 3.02 3.019 3.02h3.588V1.471H7.676zm4.588 15.019H8.26c-2.476 0-4.49-2.014-4.49-4.49s2.014-4.49 4.49-4.49h3.588v8.98zM8.26 8.981c-1.665 0-3.019 1.355-3.019 3.019s1.355 3.019 3.019 3.019h3.588V8.981H8.26zm7.592 0h-3.588v8.981h3.588c2.476 0 4.49-2.014 4.49-4.49s-2.014-4.491-4.49-4.491zm-.001 7.51h-3.588v-6.039h3.588c1.665 0 3.019 1.355 3.019 3.019s-1.354 3.02-3.019 3.02z" fill="#F24E1E"/>
  <text x="30" y="38" font-family="Arial, sans-serif" font-size="32" font-weight="bold" fill="#F24E1E">Figma</text>
</svg>
